<svg width="14" height="14" viewBox="0 0 14 14" fill="none" xmlns="http://www.w3.org/2000/svg">
<g clip-path="url(#clip0_5_89)">
<path d="M7 0C3.14008 0 0 3.14008 0 7C0 10.8599 3.14008 14 7 14C10.8599 14 14 10.8599 14 7C14 3.14008 10.8599 0 7 0ZM10.3291 10.6208C10.2153 10.7345 10.066 10.7917 9.91667 10.7917C9.76733 10.7917 9.618 10.7345 9.50425 10.6208L6.58758 7.70408C6.47792 7.595 6.41667 7.44683 6.41667 7.29167V3.5C6.41667 3.17742 6.678 2.91667 7 2.91667C7.322 2.91667 7.58333 3.17742 7.58333 3.5V7.05017L10.3291 9.79592C10.5572 10.024 10.5572 10.3927 10.3291 10.6208Z" fill="#968CC9"/>
</g>
<defs>
<clipPath id="clip0_5_89">
<rect width="14" height="14" fill="white"/>
</clipPath>
</defs>
</svg>
