<svg width="14" height="14" viewBox="0 0 14 14" fill="none" xmlns="http://www.w3.org/2000/svg">
<path d="M6.55403 1.32873C6.69889 0.890424 7.30111 0.890424 7.44597 1.32873L8.59197 4.79624C8.65577 4.98929 8.83008 5.12062 9.02813 5.12486L12.5379 5.20009C12.9819 5.20961 13.1676 5.7883 12.8166 6.06823L10.0025 8.31214C9.84893 8.43457 9.78412 8.64146 9.83927 8.83315L10.8582 12.3754C10.9853 12.8172 10.4984 13.1753 10.1336 12.9083L7.27296 10.8147C7.10954 10.6951 6.89046 10.6951 6.72704 10.8147L3.86644 12.9083C3.50163 13.1753 3.01471 12.8172 3.1418 12.3754L4.16073 8.83316C4.21588 8.64146 4.15107 8.43457 3.99753 8.31214L1.18343 6.06823C0.832367 5.7883 1.01813 5.20961 1.4621 5.20009L4.97187 5.12486C5.16992 5.12062 5.34423 4.98929 5.40803 4.79624L6.55403 1.32873Z" fill="white"/>
<path d="M3.64364 7.57618C3.3767 7.61659 3.01599 7.47886 2.87532 7.40478C3.07487 7.61692 3.57567 8.06504 3.8988 8.23282C4.2181 8.39862 4.1679 8.78075 4.11471 8.97028L3.90931 9.74241C3.99567 9.60502 4.37969 9.35753 4.56615 9.25314L6.62707 7.97017C6.74811 7.93649 6.99215 7.80045 7 7.52567C7.00785 7.25089 6.68923 7.25628 6.52893 7.29332C5.67839 7.37077 3.91058 7.53577 3.64364 7.57618Z" fill="#241D49"/>
<path d="M6.55403 1.32873C6.69889 0.890424 7.30111 0.890424 7.44597 1.32873L8.59197 4.79624C8.65577 4.98929 8.83008 5.12062 9.02813 5.12486L12.5379 5.20009C12.9819 5.20961 13.1676 5.7883 12.8166 6.06823L10.0025 8.31214C9.84893 8.43457 9.78412 8.64146 9.83927 8.83315L10.8582 12.3754C10.9853 12.8172 10.4984 13.1753 10.1336 12.9083L7.27296 10.8147C7.10954 10.6951 6.89046 10.6951 6.72704 10.8147L3.86644 12.9083C3.50163 13.1753 3.01471 12.8172 3.1418 12.3754L4.16073 8.83316C4.21588 8.64146 4.15107 8.43457 3.99753 8.31214L1.18343 6.06823C0.832367 5.7883 1.01813 5.20961 1.4621 5.20009L4.97187 5.12486C5.16992 5.12062 5.34423 4.98929 5.40803 4.79624L6.55403 1.32873Z" stroke="#241D49" stroke-width="0.5"/>
<path d="M3.64364 7.57618C3.3767 7.61659 3.01599 7.47886 2.87532 7.40478C3.07487 7.61692 3.57567 8.06504 3.8988 8.23282C4.2181 8.39862 4.1679 8.78075 4.11471 8.97028L3.90931 9.74241C3.99567 9.60502 4.37969 9.35753 4.56615 9.25314L6.62707 7.97017C6.74811 7.93649 6.99215 7.80045 7 7.52567C7.00785 7.25089 6.68923 7.25628 6.52893 7.29332C5.67839 7.37077 3.91058 7.53577 3.64364 7.57618Z" stroke="#241D49" stroke-width="0.5"/>
</svg>
