<svg width="10" height="12" viewBox="0 0 10 12" fill="none" xmlns="http://www.w3.org/2000/svg">
<path d="M3.07734 9.33333C2.77022 9.33333 2.514 9.23067 2.30867 9.02534C2.10333 8.82 2.00045 8.56378 2 8.25667V1.07667C2 0.770001 2.10289 0.513779 2.30867 0.308001C2.51445 0.102224 2.77067 -0.000443008 3.07734 1.43678e-06H8.25667C8.56334 1.43678e-06 8.81956 0.102668 9.02534 0.308001C9.23111 0.513335 9.33378 0.769557 9.33333 1.07667V8.25667C9.33333 8.56334 9.23067 8.81933 9.02534 9.02467C8.82 9.23 8.56356 9.33289 8.256 9.33333H3.07734ZM3.07734 8.66667H8.25667C8.35889 8.66667 8.45289 8.624 8.53867 8.53867C8.62445 8.45333 8.66711 8.35933 8.66667 8.25667V1.07667C8.66667 0.974446 8.624 0.880446 8.53867 0.794668C8.45333 0.70889 8.35911 0.666224 8.256 0.666668H3.07734C2.97467 0.666668 2.88045 0.709335 2.79467 0.794668C2.70889 0.880001 2.66622 0.974001 2.66667 1.07667V8.25667C2.66667 8.35889 2.70934 8.45289 2.79467 8.53867C2.88 8.62445 2.974 8.66711 3.07667 8.66667M1.07667 11.3333C0.770001 11.3333 0.513779 11.2307 0.308001 11.0253C0.102224 10.82 -0.000443008 10.5638 1.43678e-06 10.2567V2.74333C1.43678e-06 2.64867 0.0317793 2.56956 0.0953349 2.506C0.15889 2.44245 0.238224 2.41067 0.333335 2.41067C0.428446 2.41067 0.507779 2.44245 0.571335 2.506C0.63489 2.56956 0.666668 2.64889 0.666668 2.744V10.2567C0.666668 10.3589 0.709335 10.4529 0.794668 10.5387C0.880001 10.6244 0.974001 10.6671 1.07667 10.6667H6.59C6.68467 10.6667 6.76378 10.6984 6.82733 10.762C6.89089 10.8256 6.92267 10.9049 6.92267 11C6.92267 11.0951 6.89089 11.1744 6.82733 11.238C6.76378 11.3016 6.68445 11.3333 6.58933 11.3333H1.07667Z" fill="white"/>
</svg>
