<svg width="8" height="11" viewBox="0 0 8 11" fill="none" xmlns="http://www.w3.org/2000/svg">
<path d="M0.34375 3.87268C0.342449 3.74845 0.382998 3.63818 0.449218 3.54456L0.523437 3.45667L3.44727 0.532837C3.52359 0.456581 3.61161 0.393905 3.71191 0.355102C3.80402 0.319499 3.90079 0.302416 4 0.302368C4.0994 0.302368 4.19679 0.319422 4.28906 0.355102C4.38924 0.393857 4.47708 0.456788 4.55371 0.532837L4.55469 0.532837L7.47559 3.45471C7.58381 3.56293 7.64589 3.69988 7.65137 3.85413C7.6573 4.02445 7.58553 4.17094 7.47168 4.28479L7.46875 4.28772C7.35999 4.39306 7.22268 4.46375 7.06152 4.46545C6.89583 4.46714 6.75559 4.39324 6.64648 4.28479L4.58398 2.22131L4.58398 9.33362C4.58391 9.49052 4.5285 9.63441 4.41602 9.74768C4.30245 9.86203 4.15706 9.91736 3.99902 9.91663C3.8429 9.91584 3.69907 9.861 3.58594 9.74866C3.47193 9.63535 3.41707 9.49063 3.41699 9.33362L3.41699 2.22131L1.35449 4.28479L1.35352 4.28577C1.24555 4.3928 1.10937 4.45492 0.955078 4.45959C0.789909 4.46452 0.646796 4.39736 0.533203 4.2887L0.529297 4.28479C0.420513 4.17601 0.345504 4.03723 0.34375 3.87268Z" fill="white" stroke="white" stroke-width="0.5"/>
</svg>
