<svg width="18" height="17" viewBox="0 0 18 17" fill="none" xmlns="http://www.w3.org/2000/svg">
<path d="M5.125 4.092L7.733 0.622C7.89167 0.407333 8.08033 0.25 8.299 0.15C8.51767 0.0500001 8.75133 0 9 0C9.24867 0 9.48233 0.0500001 9.701 0.15C9.91967 0.25 10.1083 0.407 10.267 0.621L12.875 4.092L16.895 5.46C17.251 5.58 17.525 5.78167 17.717 6.065C17.9097 6.349 18.006 6.66233 18.006 7.005C18.006 7.163 17.9827 7.32 17.936 7.476C17.8893 7.632 17.8133 7.78167 17.708 7.925L15.073 11.498L15.173 15.328C15.1897 15.7987 15.0343 16.195 14.707 16.517C14.3797 16.839 13.9987 17 13.564 17L13.11 16.944L9 15.733L4.89 16.944C4.80733 16.9773 4.72733 16.995 4.65 16.997C4.572 16.999 4.50067 17 4.436 17C3.99267 17 3.60933 16.839 3.286 16.517C2.96267 16.195 2.80967 15.799 2.827 15.329L2.927 11.473L0.298 7.925C0.192 7.78033 0.115667 7.62933 0.069 7.472C0.023 7.31467 0 7.15733 0 7C0 6.66267 0.0989999 6.34867 0.297 6.058C0.494333 5.768 0.770333 5.562 1.125 5.44L5.125 4.092ZM5.754 4.952L1.462 6.398C1.26933 6.462 1.13767 6.59333 1.067 6.792C0.996333 6.99067 1.02533 7.17333 1.154 7.34L3.946 11.18L3.827 15.34C3.81367 15.558 3.89033 15.7313 4.057 15.86C4.22367 15.988 4.41 16.02 4.616 15.956L9 14.696L13.385 15.981C13.5897 16.045 13.7753 16.013 13.942 15.885C14.1087 15.7563 14.1857 15.583 14.173 15.365L14.053 11.181L16.846 7.391C16.974 7.22433 17.003 7.04133 16.933 6.842C16.8623 6.64333 16.7307 6.512 16.538 6.448L12.246 4.952L9.481 1.269C9.36567 1.10233 9.20533 1.019 9 1.019C8.79467 1.019 8.63467 1.10233 8.52 1.269L5.754 4.952Z" fill="white"/>
</svg>
