<svg width="54" height="58" viewBox="0 0 54 58" fill="none" xmlns="http://www.w3.org/2000/svg">
<path d="M53.9212 14.2108C53.9077 14.1736 53.8898 14.141 53.8729 14.1061C53.8293 14.0191 53.7744 13.9381 53.7098 13.8654C53.6873 13.8384 53.6681 13.8114 53.6423 13.7866C53.5517 13.6982 53.4467 13.6259 53.3317 13.5729L46.1284 10.3723C46.7494 9.50263 47.1679 8.4935 47.2388 7.31788C47.4109 4.48175 45.5366 2.00562 42.5745 1.15737C40.2739 0.498125 37.6819 1.0145 35.082 2.64912C34.2832 3.152 33.5014 3.75725 32.7487 4.42662L27.4567 2.07538C27.313 2.01135 27.1574 1.97827 27 1.97827C26.8426 1.97827 26.687 2.01135 26.5432 2.07538L21.2681 4.41875C18.9169 2.35212 16.1944 0.875 13.455 0.875C12.7631 0.875 12.0791 0.9695 11.4255 1.15737C8.46225 2.00562 6.588 4.48175 6.76125 7.319C6.83325 8.49462 7.25062 9.50263 7.87162 10.3723L0.66825 13.574C0.553356 13.6271 0.448353 13.6994 0.35775 13.7878C0.333 13.8103 0.31275 13.8384 0.29025 13.8654C0.225556 13.9381 0.170711 14.0191 0.127125 14.1061C0.11025 14.141 0.0933747 14.1736 0.0787497 14.2108C0.0290317 14.3354 0.00234973 14.4681 9.065e-09 14.6022V44.5003C-2.76174e-05 44.7179 0.0630909 44.9309 0.181704 45.1134C0.300316 45.2959 0.469329 45.4401 0.66825 45.5285L26.5432 57.0283C26.559 57.035 26.577 57.0327 26.595 57.0395C26.7255 57.0901 26.8605 57.125 27 57.125C27.1395 57.125 27.2745 57.0901 27.405 57.0384C27.4219 57.0327 27.441 57.035 27.4567 57.0271L53.3317 45.5285C53.5308 45.4402 53.6998 45.2961 53.8185 45.1135C53.9371 44.931 54.0002 44.7179 54 44.5003V14.6022C53.9976 14.4681 53.9709 14.3354 53.9212 14.2108ZM25.875 26.8333V54.2675L14.625 49.268V21.8337L25.875 26.8333ZM27 24.8701L16.308 20.1181L25.1978 16.256C25.2158 16.2493 25.227 16.2335 25.2428 16.2245C25.6399 16.2537 26.0381 16.2852 26.4319 16.3134L27.0203 16.3494C27.054 16.3494 27.567 16.3134 27.567 16.3134C27.9608 16.2852 28.3601 16.2538 28.7572 16.2256C28.7741 16.2335 28.7843 16.2481 28.8023 16.256L37.692 20.1181L27 24.8701ZM40.4831 18.8784L33.3686 15.788C34.9582 15.59 36.5479 15.3335 38.1161 14.9398C39.6495 14.5561 42.3686 13.6921 44.4431 12.0856L50.1052 14.6022L40.4831 18.8784ZM36.2801 4.55375C37.7921 3.602 39.2164 3.12387 40.536 3.12387C41.0243 3.12387 41.4979 3.18912 41.9546 3.32075C43.5555 3.77862 45.1159 5.15 44.9932 7.18062C44.8234 9.96275 41.0468 11.8865 37.5683 12.7584C34.6421 13.4919 31.563 13.7686 28.5469 13.988C29.6606 11.1305 32.6453 6.842 36.2801 4.55375ZM27 4.33325L31.0298 6.12425C29.3535 7.95463 27.9382 10.0347 27.009 11.9214C26.0989 10.0359 24.7027 7.95462 23.004 6.10962L27 4.33325ZM12.0454 3.32075C12.5039 3.19022 12.9783 3.12434 13.455 3.125C18.3082 3.125 23.8444 9.75687 25.4633 13.9891C22.4438 13.7686 19.3612 13.4941 16.4306 12.7584C12.9544 11.8865 9.17662 9.96275 9.00562 7.18175C8.883 5.15112 10.4434 3.77862 12.0454 3.32075ZM9.55688 12.0856C11.6325 13.6921 14.3505 14.5561 15.8839 14.9398C17.4521 15.3335 19.0417 15.59 20.6314 15.788L13.518 18.8784L3.89475 14.6022L9.55688 12.0856ZM2.25 16.3336L12.375 20.8336V48.269L2.25 43.769V16.3336ZM28.125 26.8333L39.375 21.8326V49.2691L28.125 54.2686V26.8333ZM41.625 48.269V20.8325L51.75 16.3325V43.769L41.625 48.269Z" fill="#6C4DB1"/>
</svg>
