<svg width="10" height="18" viewBox="0 0 10 18" fill="none" xmlns="http://www.w3.org/2000/svg">
<path d="M4.48734 17.5V15.466C3.62934 15.3553 2.89234 15.0583 2.27634 14.575C1.66034 14.0917 1.20234 13.423 0.902344 12.569L1.82934 12.165C2.11801 12.9137 2.51468 13.4903 3.01934 13.895C3.52401 14.2997 4.20801 14.5013 5.07134 14.5C5.83134 14.5 6.52601 14.3107 7.15534 13.932C7.78468 13.5533 8.09901 12.9427 8.09834 12.1C8.09834 11.3887 7.86701 10.8173 7.40434 10.386C6.94101 9.95467 6.07501 9.535 4.80634 9.127C3.51368 8.71567 2.60401 8.24567 2.07734 7.717C1.55068 7.18767 1.28734 6.49867 1.28734 5.65C1.28734 4.72067 1.64368 3.97833 2.35634 3.423C3.06901 2.86833 3.77901 2.56833 4.48634 2.523V0.5H5.48634V2.523C6.17901 2.59233 6.77368 2.78433 7.27034 3.099C7.76701 3.41367 8.17901 3.86133 8.50634 4.442L7.61734 4.896C7.37934 4.46533 7.05134 4.11667 6.63334 3.85C6.21534 3.58333 5.68334 3.45 5.03734 3.45C4.26534 3.45 3.61401 3.65433 3.08334 4.063C2.55268 4.471 2.28734 5 2.28734 5.65C2.28734 6.264 2.50501 6.76133 2.94034 7.142C3.37634 7.52333 4.24968 7.921 5.56034 8.335C6.77368 8.719 7.66701 9.21267 8.24034 9.816C8.81234 10.4193 9.09834 11.1767 9.09834 12.088C9.09834 13.092 8.74501 13.8897 8.03834 14.481C7.33168 15.0723 6.48101 15.4043 5.48634 15.477V17.5H4.48734Z" fill="#009AFE"/>
</svg>
