<svg width="21" height="14" viewBox="0 0 21 14" fill="none" xmlns="http://www.w3.org/2000/svg">
<path d="M6.00162 14C5.30828 14 4.71795 13.7567 4.23062 13.27C3.74328 12.7853 3.49962 12.1953 3.49962 11.5H1.87862C1.73662 11.5 1.61795 11.452 1.52262 11.356C1.42728 11.26 1.37928 11.141 1.37862 10.999C1.37795 10.857 1.42595 10.7383 1.52262 10.643C1.61928 10.5477 1.73795 10.5 1.87862 10.5H3.75562C3.93628 10.0553 4.22795 9.694 4.63062 9.416C5.03328 9.13867 5.48962 9 5.99962 9C6.50962 9 6.96628 9.13867 7.36962 9.416C7.77162 9.694 8.06295 10.0553 8.24362 10.5H12.8616L15.0576 1H4.71162C4.56962 1 4.45062 0.952 4.35462 0.856C4.25862 0.76 4.21095 0.641 4.21162 0.499C4.21228 0.357 4.25995 0.238333 4.35462 0.143C4.44928 0.0476668 4.56828 0 4.71162 0H15.2886C15.5446 0 15.7533 0.102667 15.9146 0.308C16.0766 0.513333 16.1286 0.742 16.0706 0.994L15.4976 3.5H16.7686C17.0246 3.5 17.267 3.55733 17.4956 3.672C17.725 3.786 17.9136 3.944 18.0616 4.146L19.8586 6.544C20.004 6.73867 20.0983 6.94167 20.1416 7.153C20.1856 7.36367 20.1889 7.585 20.1516 7.817L19.5536 10.854C19.5163 11.0487 19.4216 11.205 19.2696 11.323C19.1176 11.441 18.945 11.5 18.7516 11.5H18.2686C18.2686 12.1927 18.0259 12.7827 17.5406 13.27C17.0553 13.7573 16.4653 14.0007 15.7706 14C15.076 13.9993 14.4856 13.756 13.9996 13.27C13.513 12.7847 13.2696 12.1947 13.2696 11.5H8.49962C8.49962 12.1927 8.25695 12.7827 7.77162 13.27C7.28628 13.7573 6.69628 14.0007 6.00162 14ZM14.3866 8.25H19.0376L19.2146 7.36L17.0766 4.5H15.2586L14.3866 8.25ZM13.1036 9.498L13.2336 8.918C13.3203 8.53133 13.4303 8.058 13.5636 7.498C13.639 7.19133 13.705 6.908 13.7616 6.648C13.8176 6.388 13.8623 6.17267 13.8956 6.002L14.0256 5.422C14.1123 5.03533 14.2223 4.562 14.3556 4.002C14.489 3.442 14.599 2.96867 14.6856 2.582L14.8156 2.002L15.0576 1L12.8606 10.5L13.1036 9.498ZM0.788617 7.998C0.651951 7.998 0.537617 7.95 0.445617 7.854C0.353617 7.758 0.307617 7.63933 0.307617 7.498C0.307617 7.35667 0.355284 7.23767 0.450617 7.141C0.545951 7.04433 0.664951 6.99667 0.807617 6.998H4.28762C4.42962 6.998 4.54862 7.046 4.64462 7.142C4.74062 7.238 4.78828 7.357 4.78762 7.499C4.78695 7.641 4.73928 7.75967 4.64462 7.855C4.54995 7.95033 4.43095 7.998 4.28762 7.998H0.788617ZM2.78862 4.502C2.64662 4.502 2.52762 4.454 2.43162 4.358C2.33562 4.262 2.28762 4.143 2.28762 4.001C2.28762 3.859 2.33562 3.74033 2.43162 3.645C2.52762 3.54967 2.64628 3.502 2.78762 3.502H7.28762C7.42962 3.502 7.54862 3.55 7.64462 3.646C7.73995 3.742 7.78762 3.861 7.78762 4.003C7.78762 4.145 7.73995 4.26367 7.64462 4.359C7.54928 4.45433 7.43028 4.502 7.28762 4.502H2.78862ZM5.99962 13C6.41095 13 6.76395 12.853 7.05862 12.559C7.35262 12.2643 7.49962 11.9113 7.49962 11.5C7.49962 11.0887 7.35262 10.7357 7.05862 10.441C6.76462 10.1463 6.41162 9.99933 5.99962 10C5.58762 10.0007 5.23462 10.1477 4.94062 10.441C4.64662 10.7357 4.49962 11.0887 4.49962 11.5C4.49962 11.9113 4.64662 12.2643 4.94062 12.559C5.23528 12.853 5.58828 13 5.99962 13ZM15.7696 13C16.181 13 16.5336 12.853 16.8276 12.559C17.1216 12.2643 17.2686 11.9113 17.2686 11.5C17.2686 11.0887 17.1216 10.7357 16.8276 10.441C16.5336 10.1463 16.1806 9.99933 15.7686 10C15.3566 10.0007 15.004 10.1477 14.7106 10.441C14.416 10.7357 14.2686 11.0887 14.2686 11.5C14.2686 11.9113 14.4156 12.2643 14.7096 12.559C15.0043 12.853 15.3576 13 15.7696 13Z" fill="#009AFE"/>
</svg>
