<svg width="15" height="20" viewBox="0 0 15 20" fill="none" xmlns="http://www.w3.org/2000/svg">
<path d="M5.30762 19.5V6.33301C4.06028 6.09968 3.02695 5.50235 2.20762 4.54101C1.38962 3.58035 0.922951 2.46401 0.807617 1.19201H1.80762C1.93562 2.39601 2.42628 3.40235 3.27962 4.21101C4.13295 5.01968 5.12295 5.42368 6.24962 5.42301H8.74962C9.13428 5.42301 9.45995 5.47968 9.72662 5.59301C9.99328 5.70635 10.2633 5.89901 10.5366 6.17101L14.7726 10.408L14.0656 11.116L9.69162 6.74201V19.5H8.69162V13.616H6.30762V19.5H5.30762ZM7.49962 3.77001C7.02628 3.77001 6.62595 3.60601 6.29862 3.27801C5.97128 2.95001 5.80762 2.54968 5.80762 2.07701C5.80762 1.60435 5.97128 1.20401 6.29862 0.876012C6.62595 0.548012 7.02628 0.384345 7.49962 0.385012C7.97295 0.385678 8.37328 0.549345 8.70062 0.876012C9.02795 1.20268 9.19162 1.60301 9.19162 2.07701C9.19162 2.55101 9.02795 2.95135 8.70062 3.27801C8.37262 3.60535 7.97228 3.77001 7.49962 3.77001Z" fill="#009AFE"/>
</svg>
