<svg width="137" height="29" viewBox="0 0 137 29" fill="none" xmlns="http://www.w3.org/2000/svg">
<g clip-path="url(#clip0_16_633)">
<path d="M129.554 10.3287C129.699 9.89042 130.301 9.89042 130.446 10.3287L131.592 13.7962C131.656 13.9893 131.83 14.1206 132.028 14.1249L135.538 14.2001C135.982 14.2096 136.168 14.7883 135.817 15.0682L133.002 17.3121C132.849 17.4346 132.784 17.6415 132.839 17.8332L133.858 21.3754C133.985 21.8172 133.498 22.1753 133.134 21.9083L130.273 19.8147C130.11 19.6951 129.89 19.6951 129.727 19.8147L126.866 21.9083C126.502 22.1753 126.015 21.8172 126.142 21.3754L127.161 17.8332C127.216 17.6415 127.151 17.4346 126.998 17.3121L124.183 15.0682C123.832 14.7883 124.018 14.2096 124.462 14.2001L127.972 14.1249C128.17 14.1206 128.344 13.9893 128.408 13.7962L129.554 10.3287Z" fill="white"/>
<path d="M126.644 16.5762C126.377 16.6166 126.016 16.4789 125.875 16.4048C126.075 16.6169 126.576 17.065 126.899 17.2328C127.218 17.3986 127.168 17.7808 127.115 17.9703L126.909 18.7424C126.996 18.605 127.38 18.3575 127.566 18.2531L129.627 16.9702C129.748 16.9365 129.992 16.8005 130 16.5257C130.008 16.2509 129.689 16.2563 129.529 16.2933C128.678 16.3708 126.911 16.5358 126.644 16.5762Z" fill="white"/>
<path d="M129.554 10.3287C129.699 9.89042 130.301 9.89042 130.446 10.3287L131.592 13.7962C131.656 13.9893 131.83 14.1206 132.028 14.1249L135.538 14.2001C135.982 14.2096 136.168 14.7883 135.817 15.0682L133.002 17.3121C132.849 17.4346 132.784 17.6415 132.839 17.8332L133.858 21.3754C133.985 21.8172 133.498 22.1753 133.134 21.9083L130.273 19.8147C130.11 19.6951 129.89 19.6951 129.727 19.8147L126.866 21.9083C126.502 22.1753 126.015 21.8172 126.142 21.3754L127.161 17.8332C127.216 17.6415 127.151 17.4346 126.998 17.3121L124.183 15.0682C123.832 14.7883 124.018 14.2096 124.462 14.2001L127.972 14.1249C128.17 14.1206 128.344 13.9893 128.408 13.7962L129.554 10.3287Z" stroke="white" stroke-width="0.5"/>
<path d="M126.644 16.5762C126.377 16.6166 126.016 16.4789 125.875 16.4048C126.075 16.6169 126.576 17.065 126.899 17.2328C127.218 17.3986 127.168 17.7808 127.115 17.9703L126.909 18.7424C126.996 18.605 127.38 18.3575 127.566 18.2531L129.627 16.9702C129.748 16.9365 129.992 16.8005 130 16.5257C130.008 16.2509 129.689 16.2563 129.529 16.2933C128.678 16.3708 126.911 16.5358 126.644 16.5762Z" stroke="white" stroke-width="0.5"/>
</g>
<path d="M11.472 1.792C12.4987 2.09067 13.4133 2.50133 14.216 3.024C15.0373 3.54667 15.728 4.144 16.288 4.816C16.848 5.488 17.2773 6.20667 17.576 6.972C17.8747 7.73733 18.0147 8.52133 17.996 9.324C17.996 9.86533 17.9027 10.4627 17.716 11.116C17.548 11.7693 17.3333 12.3387 17.072 12.824C16.7173 13.5147 16.2227 14.168 15.588 14.784C14.972 15.4 14.2627 15.904 13.46 16.296C12.6573 16.6693 11.7893 16.8747 10.856 16.912C9.94133 16.9493 9.008 16.7347 8.056 16.268C7.888 17.0147 7.73867 17.7333 7.608 18.424C7.47733 19.1147 7.36533 19.7587 7.272 20.356C7.17867 20.9347 7.11333 21.448 7.076 21.896C7.05733 22.3627 7.06667 22.7267 7.104 22.988C7.12267 23.044 7.11333 23.1093 7.076 23.184C7.03867 23.2027 7.01067 23.212 6.992 23.212C6.97333 23.2307 6.94533 23.2493 6.908 23.268C5.788 23.38 4.98533 23.2307 4.5 22.82C4.01467 22.4093 3.80933 21.8773 3.884 21.224C3.95867 20.5147 4.108 19.6373 4.332 18.592C4.57467 17.528 4.82667 16.436 5.088 15.316C5.368 14.196 5.63867 13.104 5.9 12.04C6.18 10.9573 6.404 10.052 6.572 9.324C6.124 9.52933 5.60133 9.688 5.004 9.8C4.42533 9.912 3.76267 9.92133 3.016 9.828C2.064 9.11867 1.45733 8.38133 1.196 7.616C0.934667 6.85067 0.934667 6.12267 1.196 5.432C1.45733 4.72267 1.93333 4.07867 2.624 3.5C3.33333 2.90267 4.15467 2.42667 5.088 2.072C6.04 1.71733 7.06667 1.50267 8.168 1.428C9.26933 1.35333 10.3707 1.47467 11.472 1.792ZM14.916 9.688C14.9907 8.94133 14.9533 8.232 14.804 7.56C14.6547 6.86933 14.4027 6.25333 14.048 5.712C13.712 5.152 13.2733 4.68533 12.732 4.312C12.1907 3.93867 11.5653 3.696 10.856 3.584C10.128 3.472 9.36267 3.5 8.56 3.668C7.776 3.81733 7.02933 4.09733 6.32 4.508C5.62933 4.91867 5.004 5.45067 4.444 6.104C3.90267 6.75733 3.51067 7.52267 3.268 8.4C3.73467 8.38133 4.21067 8.25067 4.696 8.008C5.18133 7.74667 5.62933 7.42933 6.04 7.056C6.46933 6.664 6.83333 6.244 7.132 5.796C7.43067 5.32933 7.62667 4.872 7.72 4.424C7.75733 4.27467 7.832 4.21867 7.944 4.256C8.48533 4.27467 8.91467 4.33067 9.232 4.424C9.568 4.51733 9.82 4.63867 9.988 4.788C10.268 5.03067 10.4267 5.348 10.464 5.74C10.464 5.852 10.4547 6.01067 10.436 6.216C10.4173 6.42133 10.3893 6.636 10.352 6.86C10.3147 7.06533 10.268 7.27067 10.212 7.476C10.1747 7.68133 10.1373 7.84 10.1 7.952C9.95067 8.66133 9.75467 9.39867 9.512 10.164C9.288 10.9293 9.18533 11.6667 9.204 12.376C9.22267 13.0107 9.344 13.5147 9.568 13.888C9.792 14.2427 10.072 14.476 10.408 14.588C10.744 14.6813 11.1173 14.672 11.528 14.56C11.9573 14.4293 12.368 14.196 12.76 13.86C13.1707 13.524 13.544 13.0947 13.88 12.572C14.2347 12.0493 14.5147 11.4333 14.72 10.724C14.7947 10.4067 14.86 10.0613 14.916 9.688ZM24.1582 16.24C24.2329 16.128 24.3169 16.0813 24.4102 16.1C24.5222 16.1187 24.6062 16.1933 24.6622 16.324C24.7182 16.436 24.7369 16.6227 24.7182 16.884C24.6995 17.1267 24.5969 17.4347 24.4102 17.808C24.2049 18.256 23.9342 18.6853 23.5982 19.096C23.2809 19.5067 22.9169 19.8707 22.5062 20.188C22.0955 20.4867 21.6475 20.72 21.1622 20.888C20.6769 21.0373 20.1822 21.084 19.6782 21.028C18.8382 20.9347 18.2409 20.6453 17.8862 20.16C17.5502 19.656 17.3449 19.0027 17.2702 18.2C17.2329 17.8453 17.2329 17.4533 17.2702 17.024C17.3075 16.576 17.3542 16.128 17.4102 15.68C17.4849 15.232 17.5689 14.784 17.6622 14.336C17.7555 13.888 17.8489 13.4773 17.9422 13.104C18.3342 11.4053 18.7262 9.73467 19.1182 8.092C19.5289 6.44933 19.9209 4.77867 20.2942 3.08C20.3129 2.98667 20.3875 2.92133 20.5182 2.884C20.8915 2.84667 21.2555 2.84667 21.6102 2.884C21.9649 2.90267 22.2635 2.98667 22.5062 3.136C22.7675 3.28533 22.9542 3.50933 23.0662 3.808C23.1782 4.088 23.1875 4.452 23.0942 4.9C22.7955 6.22533 22.4782 7.54133 22.1422 8.848C21.8249 10.1547 21.5075 11.48 21.1902 12.824C21.1155 13.16 21.0222 13.5427 20.9102 13.972C20.8169 14.3827 20.7235 14.8027 20.6302 15.232C20.5369 15.6613 20.4529 16.0907 20.3782 16.52C20.3222 16.9307 20.3035 17.304 20.3222 17.64C20.3409 18.312 20.5369 18.7507 20.9102 18.956C21.3022 19.1613 21.7689 19.0773 22.3102 18.704C22.5342 18.536 22.7395 18.34 22.9262 18.116C23.1315 17.892 23.3089 17.6587 23.4582 17.416C23.6262 17.1733 23.7662 16.9493 23.8782 16.744C23.9902 16.5387 24.0835 16.3707 24.1582 16.24ZM36.3001 16.296C36.3561 16.184 36.4308 16.1373 36.5241 16.156C36.6361 16.156 36.7201 16.2213 36.7761 16.352C36.8321 16.4827 36.8508 16.6693 36.8321 16.912C36.8135 17.1547 36.7201 17.4627 36.5521 17.836C36.3468 18.284 36.0761 18.7133 35.7401 19.124C35.4228 19.516 35.0588 19.8613 34.6481 20.16C34.2375 20.4587 33.7895 20.692 33.3041 20.86C32.8375 21.028 32.3521 21.084 31.8481 21.028C31.2135 20.9533 30.7188 20.7573 30.3641 20.44C30.0281 20.104 29.7855 19.6747 29.6361 19.152C29.2068 19.7307 28.6935 20.188 28.0961 20.524C27.5175 20.8413 26.8268 21 26.0241 21C25.2028 21 24.5121 20.776 23.9521 20.328C23.3921 19.8613 22.9815 19.2547 22.7201 18.508C22.3655 17.5373 22.2441 16.5387 22.3561 15.512C22.4868 14.4667 22.8041 13.524 23.3081 12.684C23.8121 11.8253 24.4841 11.144 25.3241 10.64C26.1641 10.1173 27.1255 9.89333 28.2081 9.968C28.6748 10.0053 29.1041 10.1453 29.4961 10.388C29.9068 10.612 30.2615 10.9667 30.5601 11.452C30.6161 11.228 30.6721 11.0133 30.7281 10.808C30.7841 10.6027 30.8308 10.3973 30.8681 10.192C30.8868 10.0987 30.9521 10.0333 31.0641 9.996C31.4375 9.95867 31.8015 9.95867 32.1561 9.996C32.5108 10.0333 32.8095 10.1267 33.0521 10.276C33.3135 10.4067 33.5001 10.612 33.6121 10.892C33.7241 11.172 33.7335 11.536 33.6401 11.984C33.5655 12.3573 33.4535 12.796 33.3041 13.3C33.1735 13.804 33.0428 14.3173 32.9121 14.84C32.8001 15.3627 32.6975 15.876 32.6041 16.38C32.5108 16.884 32.4735 17.3133 32.4921 17.668C32.5108 18.3213 32.7068 18.7507 33.0801 18.956C33.4535 19.1613 33.9108 19.0773 34.4521 18.704C34.9188 18.3867 35.3015 17.976 35.6001 17.472C35.9175 16.9493 36.1508 16.5573 36.3001 16.296ZM29.4401 17.248C29.4588 16.968 29.4868 16.688 29.5241 16.408C29.5615 16.1093 29.6081 15.8013 29.6641 15.484L29.1601 15.4C28.7681 15.288 28.6841 15.0547 28.9081 14.7C29.0575 14.4573 29.1788 14.168 29.2721 13.832C29.3655 13.496 29.4028 13.1787 29.3841 12.88C29.3841 12.5627 29.3188 12.292 29.1881 12.068C29.0761 11.8253 28.8708 11.676 28.5721 11.62C28.2361 11.564 27.9095 11.6387 27.5921 11.844C27.2748 12.0307 26.9855 12.3107 26.7241 12.684C26.4628 13.0387 26.2295 13.4587 26.0241 13.944C25.8188 14.4107 25.6601 14.896 25.5481 15.4C25.4548 15.8853 25.4081 16.3613 25.4081 16.828C25.4081 17.2947 25.4828 17.696 25.6321 18.032C25.8001 18.4427 26.0521 18.7227 26.3881 18.872C26.7428 19.0213 27.1068 19.0587 27.4801 18.984C27.8535 18.8907 28.2175 18.704 28.5721 18.424C28.9455 18.1253 29.2348 17.7333 29.4401 17.248ZM42.7854 9.996C43.1587 9.95867 43.5134 9.95867 43.8494 9.996C44.2041 10.0147 44.5027 10.0987 44.7454 10.248C45.0067 10.3973 45.1934 10.612 45.3054 10.892C45.4174 11.172 45.4267 11.536 45.3334 11.984C45.0534 13.2907 44.7734 14.5973 44.4934 15.904C44.2134 17.2107 43.9241 18.5173 43.6254 19.824C43.5881 20.0107 43.5414 20.216 43.4854 20.44C43.4294 20.6453 43.3734 20.86 43.3174 21.084C43.2054 21.588 43.0934 22.036 42.9814 22.428C42.8881 22.82 42.7387 23.2587 42.5334 23.744C42.2161 24.416 41.8427 25.032 41.4134 25.592C41.0027 26.1707 40.5081 26.656 39.9294 27.048C39.3694 27.4587 38.7347 27.7573 38.0254 27.944C37.3161 28.1493 36.5134 28.2147 35.6174 28.14C35.1134 28.1027 34.6654 27.9813 34.2734 27.776C33.8814 27.5893 33.5641 27.3467 33.3214 27.048C33.0601 26.768 32.8827 26.4507 32.7894 26.096C32.6774 25.76 32.6587 25.4053 32.7334 25.032C32.8641 24.3787 33.2001 23.856 33.7414 23.464C34.2641 23.072 34.8427 22.8293 35.4774 22.736C35.7761 22.68 35.9254 22.708 35.9254 22.82C35.9254 22.932 35.9067 23.0253 35.8694 23.1H35.8414C35.5801 23.4173 35.3934 23.772 35.2814 24.164C35.1694 24.556 35.1601 24.9387 35.2534 25.312C35.3281 25.6853 35.5054 25.9653 35.7854 26.152C36.0654 26.3387 36.3827 26.404 36.7374 26.348C37.0921 26.292 37.4654 26.1053 37.8574 25.788C38.2681 25.4707 38.6414 24.9853 38.9774 24.332C39.1641 23.996 39.3134 23.6973 39.4254 23.436C39.5374 23.1747 39.6307 22.9227 39.7054 22.68C39.7801 22.4373 39.8454 22.1853 39.9014 21.924C39.9574 21.6813 40.0227 21.392 40.0974 21.056C40.1347 20.8693 40.1627 20.692 40.1814 20.524C40.2187 20.356 40.2561 20.2067 40.2934 20.076L40.3774 19.712C39.9294 20.1413 39.4161 20.4867 38.8374 20.748C38.2587 21.0093 37.6614 21.112 37.0454 21.056C36.2054 20.9627 35.6174 20.664 35.2814 20.16C34.9454 19.6373 34.7307 18.984 34.6374 18.2C34.5814 17.6213 34.6001 16.9867 34.6934 16.296C34.8054 15.6053 34.9361 14.9053 35.0854 14.196C35.2347 13.468 35.4027 12.7587 35.5894 12.068C35.7761 11.3773 35.9254 10.752 36.0374 10.192C36.0561 10.0987 36.1307 10.0333 36.2614 9.996C36.6347 9.95867 36.9987 9.95867 37.3534 9.996C37.7081 10.0333 38.0067 10.1267 38.2494 10.276C38.5107 10.4253 38.6974 10.64 38.8094 10.92C38.9214 11.2 38.9307 11.564 38.8374 12.012C38.7441 12.3853 38.6321 12.824 38.5014 13.328C38.3707 13.8133 38.2401 14.3173 38.1094 14.84C37.9787 15.3627 37.8667 15.876 37.7734 16.38C37.6987 16.884 37.6614 17.3133 37.6614 17.668C37.6801 18.3213 37.8761 18.7507 38.2494 18.956C38.6414 19.1613 39.1081 19.0867 39.6494 18.732C39.9294 18.5267 40.1814 18.284 40.4054 18.004C40.6294 17.724 40.8254 17.444 40.9934 17.164C41.2547 15.988 41.5161 14.8213 41.7774 13.664C42.0387 12.5067 42.3001 11.34 42.5614 10.164C42.5987 10.052 42.6734 9.996 42.7854 9.996ZM64.1943 16.128C64.2503 16.016 64.3343 15.96 64.4463 15.96C64.5769 15.96 64.6703 16.016 64.7263 16.128C64.8009 16.24 64.8289 16.408 64.8103 16.632C64.8103 16.856 64.7169 17.1453 64.5303 17.5C64.3063 17.9107 64.0449 18.2933 63.7463 18.648C63.4476 18.984 63.0929 19.2733 62.6823 19.516C62.2903 19.7587 61.8236 19.9453 61.2823 20.076C60.7596 20.188 60.1529 20.216 59.4623 20.16C58.6223 20.72 57.7543 21.0187 56.8583 21.056C55.9623 21.0933 55.1596 20.9067 54.4503 20.496C53.7409 20.0853 53.1903 19.4693 52.7983 18.648C52.4249 17.808 52.3222 16.8 52.4903 15.624C52.5836 14.9333 52.7516 14.252 52.9943 13.58C53.2556 12.908 53.6103 12.32 54.0583 11.816C54.2449 11.6107 54.4596 11.4147 54.7023 11.228C54.9636 11.0227 55.2343 10.8547 55.5143 10.724C55.8129 10.5747 56.1116 10.4813 56.4103 10.444C56.7089 10.388 56.9983 10.4067 57.2783 10.5C57.3156 10.4627 57.3623 10.4347 57.4183 10.416C57.4929 10.3973 57.5583 10.3693 57.6143 10.332C58.4916 9.996 59.2383 9.89333 59.8543 10.024C60.4889 10.1547 60.9929 10.444 61.3663 10.892C61.7583 11.3213 62.0289 11.872 62.1783 12.544C62.3276 13.1973 62.3649 13.8973 62.2903 14.644C62.2156 15.316 62.0476 15.988 61.7863 16.66C61.5436 17.332 61.2263 17.9387 60.8343 18.48C61.2636 18.5547 61.6463 18.5267 61.9823 18.396C62.3369 18.2653 62.6449 18.0787 62.9063 17.836C63.1863 17.5933 63.4289 17.3227 63.6343 17.024C63.8396 16.7067 64.0263 16.408 64.1943 16.128ZM55.3743 17.444C55.5236 18.0227 55.7943 18.452 56.1863 18.732C56.5783 19.012 57.0263 19.0493 57.5303 18.844C56.9703 18.2653 56.5409 17.556 56.2423 16.716C55.9623 15.8573 55.8129 15.0267 55.7943 14.224C55.5516 14.6907 55.3836 15.2227 55.2903 15.82C55.2156 16.4173 55.2436 16.9587 55.3743 17.444ZM60.2463 14.476C60.3583 13.7107 60.3303 13.0947 60.1623 12.628C59.9943 12.1613 59.7703 11.8813 59.4903 11.788C59.2289 11.676 58.9583 11.7787 58.6783 12.096C58.4169 12.3947 58.2489 12.936 58.1743 13.72C58.0996 14.3733 58.1463 15.008 58.3143 15.624C58.5009 16.24 58.7809 16.8187 59.1543 17.36C59.4156 16.9307 59.6396 16.4733 59.8263 15.988C60.0129 15.5027 60.1529 14.9987 60.2463 14.476ZM77.2363 16.352C77.2923 16.24 77.367 16.1933 77.4603 16.212C77.5723 16.212 77.6563 16.2773 77.7123 16.408C77.7683 16.52 77.7777 16.7067 77.7403 16.968C77.7217 17.2107 77.6283 17.5093 77.4603 17.864C77.255 18.2933 76.9937 18.7133 76.6763 19.124C76.359 19.516 75.995 19.8613 75.5843 20.16C75.1923 20.4587 74.763 20.692 74.2963 20.86C73.8297 21.028 73.3443 21.084 72.8403 21.028C72.0377 20.9347 71.4403 20.636 71.0483 20.132C70.675 19.628 70.451 18.984 70.3763 18.2C70.3203 17.7147 70.311 17.22 70.3483 16.716C70.4043 16.212 70.4977 15.6987 70.6283 15.176C70.703 14.84 70.787 14.448 70.8803 14C70.9923 13.552 71.123 13.0853 71.2723 12.6C71.291 12.152 71.1977 11.9373 70.9923 11.956C70.8057 11.9747 70.5443 12.1613 70.2083 12.516C69.891 12.8707 69.5177 13.356 69.0883 13.972C68.6777 14.588 68.267 15.2787 67.8563 16.044C67.4457 16.8093 67.063 17.6027 66.7083 18.424C66.3723 19.2453 66.1017 20.0387 65.8963 20.804C65.859 20.9347 65.7657 21 65.6163 21C65.4857 21.0187 65.3737 21.028 65.2803 21.028C65.0003 21.028 64.7203 20.9813 64.4403 20.888C64.1603 20.776 63.9177 20.6267 63.7123 20.44C63.507 20.2533 63.3483 20.0387 63.2363 19.796C63.1243 19.5347 63.1057 19.2453 63.1803 18.928C63.5163 17.4347 63.8617 15.9693 64.2163 14.532C64.5897 13.0947 64.935 11.648 65.2523 10.192C65.271 10.08 65.3363 10.0147 65.4483 9.996C65.8217 9.95867 66.1763 9.95867 66.5123 9.996C66.867 10.0147 67.1657 10.0987 67.4083 10.248C67.651 10.3787 67.8283 10.584 67.9403 10.864C68.0523 11.144 68.0617 11.508 67.9683 11.956C67.9123 12.236 67.847 12.5253 67.7723 12.824C67.7163 13.104 67.651 13.384 67.5763 13.664C67.8937 12.9733 68.267 12.348 68.6963 11.788C69.1257 11.228 69.667 10.7613 70.3203 10.388C70.6377 10.22 71.0017 10.0987 71.4123 10.024C71.8417 9.94933 72.2617 9.94933 72.6723 10.024C73.083 10.08 73.447 10.2293 73.7643 10.472C74.0817 10.696 74.2963 11.0227 74.4083 11.452C74.5017 11.788 74.5203 12.1613 74.4643 12.572C74.427 12.964 74.343 13.356 74.2123 13.748C74.1003 14.14 73.9977 14.5227 73.9043 14.896C73.8297 15.2507 73.7457 15.624 73.6523 16.016C73.5777 16.3333 73.5217 16.632 73.4843 16.912C73.4657 17.192 73.4563 17.4533 73.4563 17.696C73.475 18.3493 73.671 18.7787 74.0443 18.984C74.4177 19.1707 74.875 19.0867 75.4163 18.732C75.6403 18.5827 75.8457 18.396 76.0323 18.172C76.219 17.948 76.387 17.724 76.5363 17.5C76.7043 17.2573 76.8443 17.0333 76.9563 16.828C77.0683 16.6227 77.1617 16.464 77.2363 16.352ZM91.0837 8.988C91.4943 8.78267 91.877 8.52133 92.2317 8.204C92.5863 7.868 92.8943 7.51333 93.1557 7.14C93.4357 6.748 93.6597 6.356 93.8277 5.964C93.9957 5.572 94.0797 5.208 94.0797 4.872C94.0797 4.40533 93.8743 4.09733 93.4637 3.948C93.053 3.79867 92.549 3.78 91.9517 3.892C91.3543 4.004 90.7197 4.228 90.0477 4.564C89.3943 4.88133 88.8157 5.27333 88.3117 5.74C87.7703 6.26267 87.4343 6.748 87.3037 7.196C87.1917 7.644 87.2197 8.064 87.3877 8.456C87.5743 8.848 87.873 9.23067 88.2837 9.604C88.713 9.95867 89.189 10.332 89.7117 10.724C90.253 11.0973 90.813 11.48 91.3917 11.872C91.9703 12.264 92.5117 12.6933 93.0157 13.16C93.5197 13.6267 93.949 14.1307 94.3037 14.672C94.677 15.1947 94.9103 15.7827 95.0037 16.436C95.153 17.5 94.985 18.5173 94.4997 19.488C94.033 20.4587 93.361 21.2707 92.4837 21.924C91.6063 22.5773 90.5797 23.0067 89.4037 23.212C88.2463 23.436 87.0517 23.3053 85.8197 22.82C85.241 22.596 84.6997 22.2693 84.1957 21.84C83.6917 21.4293 83.281 20.972 82.9637 20.468C82.6463 19.9453 82.441 19.404 82.3477 18.844C82.273 18.2653 82.3663 17.724 82.6277 17.22C82.9077 16.6973 83.3743 16.2307 84.0277 15.82C84.681 15.4093 85.5863 15.092 86.7437 14.868C86.8183 14.8493 86.893 14.8867 86.9677 14.98C87.0237 15.0733 87.0143 15.1573 86.9397 15.232C86.6597 15.568 86.4543 15.96 86.3237 16.408C86.193 16.8373 86.1183 17.2853 86.0997 17.752C86.0997 18.2 86.1557 18.648 86.2677 19.096C86.3983 19.5253 86.585 19.908 86.8277 20.244C87.145 20.7107 87.4623 21.0093 87.7797 21.14C88.097 21.2707 88.405 21.2893 88.7037 21.196C89.0023 21.1027 89.2917 20.9253 89.5717 20.664C89.8517 20.4027 90.1223 20.104 90.3837 19.768C90.9437 18.9093 91.2237 18.1533 91.2237 17.5C91.2423 16.8467 91.0743 16.2587 90.7197 15.736C90.365 15.1947 89.8797 14.7 89.2637 14.252C88.6663 13.804 88.0317 13.3653 87.3597 12.936C86.6877 12.488 86.0343 12.0307 85.3997 11.564C84.765 11.0787 84.2423 10.5373 83.8317 9.94C83.2717 9.156 83.0663 8.344 83.2157 7.504C83.3837 6.664 83.7757 5.88 84.3917 5.152C85.0077 4.40533 85.7917 3.74267 86.7437 3.164C87.7143 2.56667 88.7317 2.11867 89.7957 1.82C90.8597 1.50267 91.9143 1.372 92.9597 1.428C94.0237 1.484 94.957 1.77333 95.7597 2.296C96.301 2.65067 96.693 3.12667 96.9357 3.724C97.1783 4.32133 97.2717 4.94667 97.2157 5.6C97.1783 6.25333 97.0103 6.888 96.7117 7.504C96.413 8.12 96.0023 8.63333 95.4797 9.044C94.957 9.45467 94.3223 9.716 93.5757 9.828C92.829 9.92133 91.9983 9.78133 91.0837 9.408C90.9903 9.37067 90.9437 9.30533 90.9437 9.212C90.9437 9.11867 90.9903 9.044 91.0837 8.988ZM101.511 6.552C101.959 6.57067 102.36 6.61733 102.715 6.692C103.088 6.748 103.396 6.86 103.639 7.028C103.881 7.17733 104.049 7.392 104.143 7.672C104.236 7.93333 104.245 8.26 104.171 8.652C104.171 8.72667 104.133 8.78267 104.059 8.82C103.984 8.85733 103.919 8.85733 103.863 8.82C103.489 8.67067 103.051 8.596 102.547 8.596C102.061 8.57733 101.539 8.596 100.979 8.652C100.811 9.34267 100.643 10.0333 100.475 10.724C100.307 11.4147 100.139 12.1147 99.9708 12.824C99.8961 13.16 99.8028 13.5333 99.6908 13.944C99.5975 14.3547 99.5041 14.784 99.4108 15.232C99.3175 15.6613 99.2428 16.0813 99.1868 16.492C99.1308 16.9027 99.1028 17.276 99.1028 17.612C99.1215 18.284 99.3175 18.7227 99.6908 18.928C100.083 19.1333 100.549 19.0493 101.091 18.676C101.315 18.5267 101.52 18.34 101.707 18.116C101.912 17.892 102.089 17.6587 102.239 17.416C102.407 17.1733 102.547 16.9493 102.659 16.744C102.771 16.5387 102.864 16.3707 102.939 16.24C102.995 16.128 103.069 16.0813 103.163 16.1C103.275 16.1187 103.359 16.1933 103.415 16.324C103.471 16.436 103.489 16.6227 103.471 16.884C103.452 17.1267 103.359 17.4347 103.191 17.808C102.985 18.2373 102.715 18.6573 102.379 19.068C102.061 19.4787 101.697 19.8427 101.287 20.16C100.876 20.4587 100.428 20.692 99.9428 20.86C99.4761 21.0093 98.9908 21.056 98.4868 21C97.6468 20.9067 97.0495 20.6173 96.6948 20.132C96.3588 19.628 96.1535 18.9747 96.0788 18.172C96.0415 17.6867 96.0415 17.192 96.0788 16.688C96.1348 16.1653 96.2188 15.6427 96.3308 15.12L96.3868 14.868C96.4615 14.5507 96.5268 14.2333 96.5828 13.916C96.6575 13.5987 96.7135 13.328 96.7508 13.104C96.9188 12.3947 97.0868 11.704 97.2548 11.032C97.4228 10.3413 97.5815 9.65067 97.7308 8.96C97.2268 8.99733 96.7508 9.00667 96.3028 8.988C95.8548 8.95067 95.4721 8.85733 95.1548 8.708C94.8375 8.55867 94.6041 8.33467 94.4548 8.036C94.3055 7.71867 94.2681 7.308 94.3428 6.804C94.3801 6.72933 94.4175 6.68267 94.4548 6.664C94.4921 6.62667 94.5481 6.608 94.6228 6.608C95.1081 6.70133 95.6681 6.748 96.3028 6.748C96.9561 6.72933 97.6188 6.70133 98.2908 6.664C98.4401 6.06667 98.5708 5.488 98.6828 4.928C98.8135 4.34933 98.9535 3.76133 99.1028 3.164C99.1028 3.03333 99.1681 2.968 99.2988 2.968C99.6721 2.93067 100.036 2.93067 100.391 2.968C100.745 2.98667 101.044 3.07067 101.287 3.22C101.548 3.36933 101.735 3.584 101.847 3.864C101.959 4.144 101.968 4.508 101.875 4.956C101.8 5.21733 101.735 5.488 101.679 5.768C101.623 6.02933 101.567 6.29067 101.511 6.552ZM114.995 16.296C115.051 16.184 115.126 16.1373 115.219 16.156C115.331 16.156 115.415 16.2213 115.471 16.352C115.527 16.4827 115.546 16.6693 115.527 16.912C115.509 17.1547 115.415 17.4627 115.247 17.836C115.042 18.284 114.771 18.7133 114.435 19.124C114.118 19.516 113.754 19.8613 113.343 20.16C112.933 20.4587 112.485 20.692 111.999 20.86C111.533 21.028 111.047 21.084 110.543 21.028C109.909 20.9533 109.414 20.7573 109.059 20.44C108.723 20.104 108.481 19.6747 108.331 19.152C107.902 19.7307 107.389 20.188 106.791 20.524C106.213 20.8413 105.522 21 104.719 21C103.898 21 103.207 20.776 102.647 20.328C102.087 19.8613 101.677 19.2547 101.415 18.508C101.061 17.5373 100.939 16.5387 101.051 15.512C101.182 14.4667 101.499 13.524 102.003 12.684C102.507 11.8253 103.179 11.144 104.019 10.64C104.859 10.1173 105.821 9.89333 106.903 9.968C107.37 10.0053 107.799 10.1453 108.191 10.388C108.602 10.612 108.957 10.9667 109.255 11.452C109.311 11.228 109.367 11.0133 109.423 10.808C109.479 10.6027 109.526 10.3973 109.563 10.192C109.582 10.0987 109.647 10.0333 109.759 9.996C110.133 9.95867 110.497 9.95867 110.851 9.996C111.206 10.0333 111.505 10.1267 111.747 10.276C112.009 10.4067 112.195 10.612 112.307 10.892C112.419 11.172 112.429 11.536 112.335 11.984C112.261 12.3573 112.149 12.796 111.999 13.3C111.869 13.804 111.738 14.3173 111.607 14.84C111.495 15.3627 111.393 15.876 111.299 16.38C111.206 16.884 111.169 17.3133 111.187 17.668C111.206 18.3213 111.402 18.7507 111.775 18.956C112.149 19.1613 112.606 19.0773 113.147 18.704C113.614 18.3867 113.997 17.976 114.295 17.472C114.613 16.9493 114.846 16.5573 114.995 16.296ZM108.135 17.248C108.154 16.968 108.182 16.688 108.219 16.408C108.257 16.1093 108.303 15.8013 108.359 15.484L107.855 15.4C107.463 15.288 107.379 15.0547 107.603 14.7C107.753 14.4573 107.874 14.168 107.967 13.832C108.061 13.496 108.098 13.1787 108.079 12.88C108.079 12.5627 108.014 12.292 107.883 12.068C107.771 11.8253 107.566 11.676 107.267 11.62C106.931 11.564 106.605 11.6387 106.287 11.844C105.97 12.0307 105.681 12.3107 105.419 12.684C105.158 13.0387 104.925 13.4587 104.719 13.944C104.514 14.4107 104.355 14.896 104.243 15.4C104.15 15.8853 104.103 16.3613 104.103 16.828C104.103 17.2947 104.178 17.696 104.327 18.032C104.495 18.4427 104.747 18.7227 105.083 18.872C105.438 19.0213 105.802 19.0587 106.175 18.984C106.549 18.8907 106.913 18.704 107.267 18.424C107.641 18.1253 107.93 17.7333 108.135 17.248ZM124.344 16.436C124.4 16.324 124.474 16.2773 124.568 16.296C124.68 16.296 124.764 16.3613 124.82 16.492C124.876 16.604 124.894 16.7813 124.876 17.024C124.857 17.2667 124.764 17.5653 124.596 17.92C124.39 18.3493 124.129 18.7693 123.812 19.18C123.494 19.572 123.14 19.9173 122.748 20.216C122.356 20.496 121.926 20.72 121.46 20.888C120.993 21.0373 120.517 21.084 120.032 21.028C119.229 20.9533 118.66 20.6733 118.324 20.188C117.988 19.684 117.782 19.04 117.708 18.256C117.633 17.4907 117.68 16.6413 117.848 15.708C118.034 14.756 118.24 13.8133 118.464 12.88L118.548 12.572C118.324 12.6653 118.053 12.7773 117.736 12.908C117.437 13.02 117.176 13.0947 116.952 13.132C116.84 13.7667 116.69 14.364 116.504 14.924C116.317 15.4653 116.121 15.96 115.916 16.408C115.71 16.8373 115.514 17.2107 115.328 17.528C115.141 17.8453 114.992 18.0693 114.88 18.2C114.786 18.368 114.674 18.48 114.544 18.536C114.413 18.592 114.292 18.6107 114.18 18.592C114.086 18.5547 114.021 18.48 113.984 18.368C113.946 18.2373 113.984 18.0693 114.096 17.864C114.357 17.304 114.637 16.632 114.936 15.848C115.234 15.0453 115.458 14.112 115.608 13.048C115.178 13.048 114.814 12.8987 114.516 12.6C114.217 12.3013 114.142 11.816 114.292 11.144C114.385 10.7707 114.488 10.332 114.6 9.828C114.73 9.30533 114.833 8.876 114.908 8.54C114.926 8.50267 114.936 8.456 114.936 8.4C114.954 8.344 115.038 8.30667 115.188 8.288C115.972 8.19467 116.541 8.21333 116.896 8.344C117.25 8.456 117.465 8.652 117.54 8.932C117.633 9.212 117.633 9.55733 117.54 9.968C117.446 10.3787 117.344 10.836 117.232 11.34C117.381 11.34 117.549 11.3027 117.736 11.228C117.941 11.1533 118.137 11.06 118.324 10.948C118.51 10.8173 118.678 10.6867 118.828 10.556C118.977 10.4067 119.08 10.2573 119.136 10.108C119.154 10.052 119.201 10.0147 119.276 9.996C119.649 9.95867 120.004 9.95867 120.34 9.996C120.694 10.0147 120.993 10.0987 121.236 10.248C121.478 10.3787 121.646 10.584 121.74 10.864C121.852 11.1253 121.861 11.48 121.768 11.928C121.73 12.0773 121.684 12.2827 121.628 12.544C121.572 12.7867 121.516 13.0013 121.46 13.188C121.366 13.5613 121.264 13.9627 121.152 14.392C121.058 14.8027 120.965 15.2133 120.872 15.624C120.797 16.016 120.732 16.3987 120.676 16.772C120.638 17.1453 120.62 17.472 120.62 17.752C120.657 18.4053 120.853 18.8347 121.208 19.04C121.581 19.2267 122.029 19.1427 122.552 18.788C122.776 18.6387 122.981 18.452 123.168 18.228C123.354 18.004 123.522 17.78 123.672 17.556C123.821 17.332 123.952 17.1173 124.064 16.912C124.176 16.7067 124.269 16.548 124.344 16.436ZM129.934 17.332C130.008 17.1453 130.102 17.024 130.214 16.968C130.344 16.912 130.456 16.9027 130.55 16.94C130.662 16.9773 130.746 17.0707 130.802 17.22C130.876 17.3507 130.895 17.528 130.858 17.752C130.783 18.144 130.652 18.5827 130.466 19.068C130.279 19.5347 130.036 19.992 129.738 20.44C129.439 20.888 129.084 21.308 128.674 21.7C128.263 22.092 127.796 22.4 127.274 22.624C126.938 22.7733 126.546 22.8667 126.098 22.904C125.668 22.96 125.239 22.9507 124.81 22.876C124.399 22.82 124.007 22.6987 123.634 22.512C123.279 22.344 123.008 22.1107 122.822 21.812C122.728 21.6627 122.682 21.5133 122.682 21.364C122.682 21.2333 122.719 21.14 122.794 21.084C122.868 20.9907 122.952 20.9533 123.046 20.972C123.139 20.9907 123.232 21.0187 123.326 21.056C123.531 21.1493 123.69 21.2147 123.802 21.252C123.914 21.308 124.082 21.336 124.306 21.336C124.492 21.336 124.67 21.2987 124.838 21.224C125.006 21.168 125.136 21.0653 125.23 20.916C125.323 20.7853 125.37 20.6547 125.37 20.524C125.388 20.3747 125.379 20.2253 125.342 20.076C125.155 19.572 124.894 19.012 124.558 18.396C124.24 17.7613 123.923 17.1267 123.606 16.492C123.288 15.8387 123.008 15.2133 122.766 14.616C122.542 14 122.43 13.4493 122.43 12.964C122.43 11.788 122.794 10.892 123.522 10.276C124.268 9.66 125.23 9.42667 126.406 9.576C126.779 9.61333 127.143 9.716 127.498 9.884C127.852 10.052 128.123 10.3133 128.31 10.668C128.552 11.116 128.655 11.5827 128.618 12.068C128.599 12.5347 128.487 12.992 128.282 13.44C128.095 13.888 127.852 14.3173 127.554 14.728C127.274 15.1387 126.994 15.512 126.714 15.848C127.087 16.4453 127.451 17.0893 127.806 17.78C128.16 18.452 128.384 19.18 128.478 19.964C128.907 19.3853 129.215 18.9093 129.402 18.536C129.588 18.1627 129.766 17.7613 129.934 17.332ZM126.126 14.672C126.2 14.5787 126.294 14.4573 126.406 14.308C126.518 14.1587 126.62 13.9907 126.714 13.804C126.807 13.5987 126.891 13.3933 126.966 13.188C127.04 12.964 127.087 12.7493 127.106 12.544C127.124 12.2827 127.068 12.0587 126.938 11.872C126.826 11.6853 126.686 11.5733 126.518 11.536C126.35 11.48 126.172 11.4893 125.986 11.564C125.818 11.6387 125.696 11.8067 125.622 12.068C125.547 12.3107 125.538 12.6467 125.594 13.076C125.65 13.5053 125.827 14.0373 126.126 14.672Z" fill="white"/>
<defs>
<clipPath id="clip0_16_633">
<rect width="7" height="14" fill="white" transform="translate(130 9)"/>
</clipPath>
</defs>
</svg>
