<svg width="16" height="16" viewBox="0 0 16 16" fill="none" xmlns="http://www.w3.org/2000/svg">
<g clip-path="url(#clip0_9_203)">
<path d="M8 16C12.4183 16 16 12.4183 16 8C16 3.58171 12.4183 0 8 0C3.58171 0 0 3.58171 0 8C0 12.4183 3.58171 16 8 16Z" fill="#0098EA"/>
<path d="M10.7315 4.46509H5.26813C4.26362 4.46509 3.62693 5.54866 4.1323 6.42463L7.50408 12.2689C7.7241 12.6505 8.2755 12.6505 8.49553 12.2689L11.868 6.42463C12.3727 5.55006 11.736 4.46509 10.7322 4.46509H10.7315ZM7.50133 10.5163L6.76702 9.09509L4.99519 5.92615C4.8783 5.72332 5.02267 5.4634 5.26745 5.4634H7.50065V10.5169L7.50133 10.5163ZM11.003 5.92546L9.2319 9.09577L8.49759 10.5163V5.46272H10.7308C10.9756 5.46272 11.1199 5.72263 11.003 5.92546Z" fill="white"/>
</g>
<defs>
<clipPath id="clip0_9_203">
<rect width="16" height="16" fill="white"/>
</clipPath>
</defs>
</svg>
