<svg width="16" height="16" viewBox="0 0 16 16" fill="none" xmlns="http://www.w3.org/2000/svg">
<circle cx="8" cy="8" r="7" fill="white"/>
<path fill-rule="evenodd" clip-rule="evenodd" d="M8 0C10.1325 0.0310029 12.167 0.887497 13.664 2.38442C15.1609 3.88134 16 5.89848 16 8C16 10.1015 15.1609 12.1187 13.664 13.6156C12.167 15.1125 10.1325 15.969 8 16C5.86748 15.969 3.83295 15.1125 2.33603 13.6156C0.839115 12.1187 0 10.1015 0 8C0 5.89848 0.839115 3.88134 2.33603 2.38442C3.83295 0.887497 5.86748 0.0310029 8 0ZM7.1305 11.4288V8.85677H4.52022C4.28983 8.85608 4.06907 8.76559 3.90616 8.60507C3.74325 8.44454 3.65141 8.22702 3.65071 8C3.65071 7.52808 4.04128 7.14323 4.52022 7.14323H7.1305V4.57118C7.1305 4.09926 7.52107 3.71441 8 3.71441C8.47893 3.71441 8.8695 4.10013 8.8695 4.57118V7.14323H11.4798C11.9587 7.14323 12.3493 7.52808 12.3493 8C12.3486 8.22702 12.2568 8.44454 12.0938 8.60507C11.9309 8.76559 11.7102 8.85608 11.4798 8.85677H8.8695V11.4288C8.8695 11.899 8.47893 12.2856 8 12.2856C7.76954 12.2851 7.54865 12.1947 7.38568 12.0341C7.22272 11.8736 7.13096 11.6559 7.1305 11.4288Z" fill="#02CA54"/>
</svg>
