<svg width="28" height="28" viewBox="0 0 28 28" fill="none" xmlns="http://www.w3.org/2000/svg">
<path d="M24.9997 27.75H8.99974C8.27039 27.75 7.57092 27.4603 7.05519 26.9446C6.53947 26.4288 6.24974 25.7294 6.24974 25V24.55C4.54358 24.1547 3.02163 23.1932 1.93192 21.8221C0.842217 20.4511 0.249023 18.7514 0.249023 17C0.249023 15.2487 0.842217 13.5489 1.93192 12.1779C3.02163 10.8068 4.54358 9.84531 6.24974 9.45001V3.00001C6.24974 2.27066 6.53947 1.57119 7.05519 1.05546C7.57092 0.539736 8.27039 0.250005 8.99974 0.250005H20.1697C20.5322 0.249333 20.8912 0.32058 21.2259 0.459619C21.5606 0.598658 21.8644 0.802727 22.1197 1.06L26.9397 5.88001C27.2031 6.14119 27.4107 6.45313 27.5499 6.79691C27.6891 7.1407 27.7571 7.50917 27.7497 7.88001V25C27.7497 25.7294 27.46 26.4288 26.9443 26.9446C26.4286 27.4603 25.7291 27.75 24.9997 27.75ZM7.74974 24.75V25C7.74974 25.3315 7.88143 25.6495 8.11585 25.8839C8.35028 26.1183 8.66822 26.25 8.99974 26.25H24.9997C25.3313 26.25 25.6492 26.1183 25.8836 25.8839C26.118 25.6495 26.2497 25.3315 26.2497 25V8.75001H21.9997C21.2704 8.75001 20.5709 8.46027 20.0552 7.94455C19.5395 7.42882 19.2497 6.72935 19.2497 6.00001V1.75H8.99974C8.66822 1.75 8.35028 1.8817 8.11585 2.11612C7.88143 2.35054 7.74974 2.66848 7.74974 3.00001V9.25001H7.99974C10.0552 9.25001 12.0264 10.0665 13.4798 11.5199C14.9332 12.9733 15.7497 14.9446 15.7497 17C15.7497 19.0554 14.9332 21.0267 13.4798 22.4801C12.0264 23.9335 10.0552 24.75 7.99974 24.75H7.74974ZM7.99974 10.75C6.7636 10.75 5.55523 11.1166 4.52742 11.8033C3.49962 12.4901 2.69854 13.4662 2.22549 14.6082C1.75244 15.7503 1.62867 17.0069 1.86983 18.2193C2.11099 19.4317 2.70624 20.5453 3.58032 21.4194C4.4544 22.2935 5.56804 22.8888 6.78042 23.1299C7.9928 23.3711 9.24947 23.2473 10.3915 22.7743C11.5335 22.3012 12.5097 21.5001 13.1964 20.4723C13.8832 19.4445 14.2497 18.2361 14.2497 17C14.2497 15.3424 13.5913 13.7527 12.4192 12.5806C11.2471 11.4085 9.65734 10.75 7.99974 10.75ZM20.7497 1.89V6.00001C20.7497 6.33153 20.8814 6.64947 21.1159 6.88389C21.3503 7.11831 21.6682 7.25001 21.9997 7.25001H26.1097C26.0479 7.13648 25.9704 7.03214 25.8797 6.94001L21.0597 2.12C20.9676 2.02929 20.8633 1.95188 20.7497 1.89ZM22.9997 20.75H17.9997C17.8008 20.75 17.6101 20.671 17.4694 20.5303C17.3288 20.3897 17.2497 20.1989 17.2497 20C17.2497 19.8011 17.3288 19.6103 17.4694 19.4697C17.6101 19.329 17.8008 19.25 17.9997 19.25H22.9997C23.1987 19.25 23.3894 19.329 23.5301 19.4697C23.6707 19.6103 23.7497 19.8011 23.7497 20C23.7497 20.1989 23.6707 20.3897 23.5301 20.5303C23.3894 20.671 23.1987 20.75 22.9997 20.75ZM6.49974 19.25C6.30679 19.2353 6.12731 19.1455 5.99974 19C5.87675 18.8625 5.80875 18.6845 5.80875 18.5C5.80875 18.3155 5.87675 18.1375 5.99974 18L7.27974 16.72V14C7.27974 13.8011 7.35876 13.6103 7.49941 13.4697C7.64006 13.329 7.83083 13.25 8.02974 13.25C8.22865 13.25 8.41942 13.329 8.56007 13.4697C8.70072 13.6103 8.77974 13.8011 8.77974 14V17C8.77956 17.1989 8.70043 17.3895 8.55974 17.53L6.99974 19C6.87217 19.1455 6.69268 19.2353 6.49974 19.25ZM22.9997 16.75H18.9997C18.8008 16.75 18.6101 16.671 18.4694 16.5303C18.3288 16.3897 18.2497 16.1989 18.2497 16C18.2497 15.8011 18.3288 15.6103 18.4694 15.4697C18.6101 15.329 18.8008 15.25 18.9997 15.25H22.9997C23.1987 15.25 23.3894 15.329 23.5301 15.4697C23.6707 15.6103 23.7497 15.8011 23.7497 16C23.7497 16.1989 23.6707 16.3897 23.5301 16.5303C23.3894 16.671 23.1987 16.75 22.9997 16.75ZM22.9997 12.75H17.9997C17.8008 12.75 17.6101 12.671 17.4694 12.5303C17.3288 12.3897 17.2497 12.1989 17.2497 12C17.2497 11.8011 17.3288 11.6103 17.4694 11.4697C17.6101 11.329 17.8008 11.25 17.9997 11.25H22.9997C23.1987 11.25 23.3894 11.329 23.5301 11.4697C23.6707 11.6103 23.7497 11.8011 23.7497 12C23.7497 12.1989 23.6707 12.3897 23.5301 12.5303C23.3894 12.671 23.1987 12.75 22.9997 12.75ZM15.9997 8.75001H12.9997C12.8008 8.75001 12.6101 8.67099 12.4694 8.53034C12.3288 8.38968 12.2497 8.19892 12.2497 8.00001C12.2497 7.80109 12.3288 7.61033 12.4694 7.46968C12.6101 7.32902 12.8008 7.25001 12.9997 7.25001H15.9997C16.1987 7.25001 16.3894 7.32902 16.5301 7.46968C16.6707 7.61033 16.7497 7.80109 16.7497 8.00001C16.7497 8.19892 16.6707 8.38968 16.5301 8.53034C16.3894 8.67099 16.1987 8.75001 15.9997 8.75001Z" fill="white"/>
</svg>
