<svg width="19" height="18" viewBox="0 0 19 18" fill="none" xmlns="http://www.w3.org/2000/svg">
<g clip-path="url(#clip0_27_1104)">
<path d="M9.5 18C14.4706 18 18.5 13.9706 18.5 9C18.5 4.02944 14.4706 0 9.5 0C4.52944 0 0.5 4.02944 0.5 9C0.5 13.9706 4.52944 18 9.5 18Z" fill="#F0F0F0"/>
<path d="M2.36048 3.52063C1.65353 4.44042 1.12045 5.50056 0.810059 6.65224H5.4921L2.36048 3.52063Z" fill="#0052B4"/>
<path d="M18.1898 6.65221C17.8794 5.50056 17.3463 4.44042 16.6394 3.52063L13.5078 6.65221H18.1898Z" fill="#0052B4"/>
<path d="M0.810059 11.3479C1.12049 12.4995 1.65356 13.5597 2.36048 14.4794L5.49199 11.3479H0.810059Z" fill="#0052B4"/>
<path d="M14.9792 1.86052C14.0594 1.15356 12.9993 0.620488 11.8477 0.310059V4.99206L14.9792 1.86052Z" fill="#0052B4"/>
<path d="M4.02051 16.1396C4.9403 16.8465 6.00044 17.3796 7.15209 17.69V13.0081L4.02051 16.1396Z" fill="#0052B4"/>
<path d="M7.15205 0.310059C6.0004 0.620488 4.94027 1.15356 4.02051 1.86048L7.15205 4.99203V0.310059Z" fill="#0052B4"/>
<path d="M11.8477 17.69C12.9993 17.3796 14.0594 16.8465 14.9792 16.1396L11.8477 13.0081V17.69Z" fill="#0052B4"/>
<path d="M13.5078 11.3479L16.6394 14.4795C17.3463 13.5597 17.8794 12.4995 18.1898 11.3479H13.5078Z" fill="#0052B4"/>
<path d="M18.4238 7.8261H10.674H10.6739V0.0761836C10.2896 0.0261563 9.89786 0 9.5 0C9.10207 0 8.71035 0.0261563 8.3261 0.0761836V7.82603V7.82606H0.576184C0.526156 8.21036 0.5 8.60214 0.5 9C0.5 9.39793 0.526156 9.78964 0.576184 10.1739H8.32603H8.32606V17.9238C8.71036 17.9738 9.10207 18 9.5 18C9.89786 18 10.2896 17.9739 10.6739 17.9238V10.174V10.1739H18.4238C18.4738 9.78964 18.5 9.39793 18.5 9C18.5 8.60214 18.4738 8.21035 18.4238 7.8261Z" fill="#D80027"/>
<path d="M11.8477 11.3479L15.8638 15.364C16.0485 15.1794 16.2247 14.9864 16.3928 14.7863L12.9544 11.3479H11.8477V11.3479Z" fill="#D80027"/>
<path d="M7.15237 11.3479H7.1523L3.13623 15.364C3.32087 15.5487 3.51391 15.7249 3.71402 15.893L7.15237 12.4546V11.3479Z" fill="#D80027"/>
<path d="M7.15207 6.6522V6.65213L3.13596 2.63599C2.95125 2.82063 2.77505 3.01367 2.60693 3.21378L6.04532 6.65217H7.15207V6.6522Z" fill="#D80027"/>
<path d="M11.8477 6.65223L15.8638 2.63605C15.6792 2.45134 15.4861 2.27514 15.286 2.10706L11.8477 5.54544V6.65223Z" fill="#D80027"/>
</g>
<defs>
<clipPath id="clip0_27_1104">
<rect width="18" height="18" fill="white" transform="translate(0.5)"/>
</clipPath>
</defs>
</svg>
