<svg width="14" height="14" viewBox="0 0 14 14" fill="none" xmlns="http://www.w3.org/2000/svg">
<g clip-path="url(#clip0_31_510)">
<path d="M9.16016 8.00136C9.16016 8.63025 9.67178 9.14187 10.3006 9.14187H13.9997V6.86084H10.3007C9.67181 6.86087 9.16016 7.37249 9.16016 8.00136ZM10.9243 8.03486C10.9243 8.28878 10.7185 8.49462 10.4646 8.49462C10.2107 8.49462 10.0048 8.28878 10.0048 8.03486C10.0048 7.78094 10.2107 7.5751 10.4646 7.5751C10.7185 7.57513 10.9243 7.78097 10.9243 8.03486Z" fill="#968CC9"/>
<path d="M10.3009 10.0251C9.18504 10.0251 8.27722 9.11722 8.27722 8.00135C8.27722 6.88548 9.18507 5.97763 10.3009 5.97763H14V4.4365C14 3.39402 13.1519 2.5459 12.1094 2.5459H1.8906C0.848121 2.5459 0 3.39402 0 4.4365V11.5113C0 12.5538 0.848121 13.4019 1.8906 13.4019H12.1094C13.1519 13.4019 14 12.5538 14 11.5113V10.0251H10.3009Z" fill="#968CC9"/>
<path d="M1.89046 1.6629C12.9982 1.6629 12.2022 1.65373 12.446 1.68338C12.143 1.04262 11.4906 0.598145 10.736 0.598145H1.89046C0.875356 0.598145 0.0448988 1.40238 0.00195312 2.40708C0.497484 1.94566 1.16151 1.6629 1.89046 1.6629Z" fill="#968CC9"/>
</g>
<defs>
<clipPath id="clip0_31_510">
<rect width="14" height="14" fill="white"/>
</clipPath>
</defs>
</svg>
