<svg width="18" height="18" viewBox="0 0 18 18" fill="none" xmlns="http://www.w3.org/2000/svg">
<path d="M7.95978 18C7.72711 18 7.52544 17.9237 7.35478 17.771C7.18344 17.6183 7.07711 17.428 7.03578 17.2L6.77278 15.108C6.45344 15.0113 6.10811 14.86 5.73678 14.654C5.36611 14.4473 5.05044 14.226 4.78978 13.99L2.87478 14.814C2.66344 14.9073 2.44878 14.9173 2.23078 14.844C2.01278 14.7707 1.84478 14.6323 1.72678 14.429L0.647777 12.57C0.529777 12.3667 0.49511 12.154 0.543777 11.932C0.592444 11.71 0.708444 11.528 0.891777 11.386L2.56378 10.136C2.53378 9.95467 2.50944 9.76834 2.49078 9.577C2.47078 9.385 2.46078 9.19867 2.46078 9.018C2.46078 8.85 2.47078 8.67334 2.49078 8.488C2.50944 8.30267 2.53378 8.094 2.56378 7.862L0.891777 6.612C0.708444 6.47 0.595777 6.285 0.553777 6.057C0.511777 5.829 0.549444 5.613 0.666777 5.409L1.72678 3.609C1.84478 3.41767 2.01278 3.28234 2.23078 3.203C2.44878 3.12367 2.66344 3.13067 2.87478 3.224L4.77078 4.028C5.06944 3.77934 5.39278 3.555 5.74078 3.355C6.08744 3.155 6.42511 3.00034 6.75378 2.891L7.03678 0.799004C7.07744 0.571004 7.18344 0.380671 7.35478 0.228004C7.52611 0.0753376 7.72778 -0.000662319 7.95978 4.34783e-06H10.0398C10.2724 4.34783e-06 10.4741 0.0763378 10.6448 0.229004C10.8161 0.381671 10.9224 0.572004 10.9638 0.800004L11.2268 2.912C11.6101 3.04667 11.9488 3.201 12.2428 3.375C12.5368 3.549 12.8398 3.767 13.1518 4.029L15.1438 3.225C15.3558 3.13167 15.5708 3.12467 15.7888 3.204C16.0068 3.28334 16.1744 3.41867 16.2918 3.61L17.3518 5.429C17.4698 5.633 17.5044 5.84567 17.4558 6.067C17.4071 6.28834 17.2911 6.47067 17.1078 6.614L15.3598 7.92C15.4144 8.12667 15.4451 8.31634 15.4518 8.48901C15.4584 8.66167 15.4618 8.83167 15.4618 8.999C15.4618 9.15434 15.4551 9.318 15.4418 9.49C15.4291 9.66267 15.3998 9.87134 15.3538 10.116L17.0438 11.386C17.2271 11.528 17.3464 11.71 17.4018 11.932C17.4571 12.154 17.4258 12.3667 17.3078 12.57L16.2418 14.409C16.1244 14.613 15.9534 14.7513 15.7288 14.824C15.5041 14.8973 15.2861 14.8873 15.0748 14.794L13.1518 13.97C12.8404 14.232 12.5271 14.4563 12.2118 14.643C11.8964 14.8297 11.5681 14.978 11.2268 15.088L10.9628 17.199C10.9221 17.427 10.8161 17.6173 10.6448 17.77C10.4734 17.9227 10.2718 17.9993 10.0398 18H7.95978ZM7.99978 17H9.95578L10.3248 14.292C10.8288 14.1587 11.2821 13.9757 11.6848 13.743C12.0888 13.5103 12.4994 13.1917 12.9168 12.787L15.4118 13.85L16.4058 12.15L14.2168 10.506C14.3001 10.2213 14.3554 9.95934 14.3828 9.72001C14.4094 9.48134 14.4228 9.24134 14.4228 9C14.4228 8.74667 14.4094 8.50667 14.3828 8.28C14.3561 8.05334 14.3008 7.80434 14.2168 7.533L16.4438 5.85L15.4498 4.15L12.8978 5.22C12.5951 4.88734 12.1974 4.57567 11.7048 4.285C11.2114 3.995 10.7448 3.80267 10.3048 3.708L9.99978 1H8.00578L7.69378 3.689C7.18978 3.79634 6.72644 3.96967 6.30378 4.209C5.88178 4.44767 5.46178 4.776 5.04378 5.194L2.54978 4.15L1.55578 5.85L3.72478 7.47C3.64144 7.694 3.58311 7.93734 3.54978 8.2C3.51644 8.46267 3.49978 8.736 3.49978 9.02001C3.49978 9.27334 3.51644 9.525 3.54978 9.775C3.58311 10.025 3.63511 10.2683 3.70578 10.505L1.55578 12.15L2.54978 13.85L5.02478 12.8C5.41744 13.196 5.82478 13.5137 6.24678 13.753C6.66944 13.9923 7.14544 14.1787 7.67478 14.312L7.99978 17ZM8.97278 11.5C9.67011 11.5 10.2611 11.2577 10.7458 10.773C11.2304 10.2883 11.4728 9.69734 11.4728 9C11.4728 8.30267 11.2304 7.71167 10.7458 7.227C10.2611 6.74234 9.67011 6.5 8.97278 6.5C8.27144 6.5 7.67944 6.74234 7.19678 7.227C6.71411 7.71167 6.47278 8.30267 6.47278 9C6.47278 9.69734 6.71411 10.2883 7.19678 10.773C7.67944 11.2577 8.27144 11.5 8.97278 11.5Z" fill="white"/>
</svg>
