<svg width="24" height="24" viewBox="0 0 24 24" fill="none" xmlns="http://www.w3.org/2000/svg">
<path d="M0.666675 22.3333C0.477342 22.3333 0.31912 22.2693 0.192009 22.1413C0.0648981 22.0133 0.000898021 21.8547 9.1324e-06 21.6653C-0.000879756 21.476 0.0631203 21.3178 0.192009 21.1907C0.320898 21.0635 0.47912 21 0.666675 21H23.3333C23.5227 21 23.6809 21.064 23.808 21.192C23.9351 21.32 23.9991 21.4786 24 21.668C24.0009 21.8573 23.9369 22.0155 23.808 22.1427C23.6791 22.2698 23.5209 22.3333 23.3333 22.3333H0.666675ZM2.66934 18.64C2.30045 18.64 1.98534 18.5107 1.72401 18.252C1.46356 17.9933 1.33334 17.6787 1.33334 17.308V13C1.33334 12.6293 1.46267 12.3147 1.72134 12.056C1.98001 11.7964 2.29423 11.6667 2.66401 11.6667C3.03378 11.6667 3.3489 11.7964 3.60934 12.056C3.86978 12.3155 4.00001 12.6302 4.00001 13V17.3067C4.00001 17.6782 3.87067 17.9933 3.61201 18.252C3.35334 18.5115 3.03912 18.6413 2.66934 18.6413M8.87467 18.6413C8.50489 18.6413 8.18978 18.5115 7.92934 18.252C7.66889 17.9924 7.53867 17.6778 7.53867 17.308V6.33333C7.53867 5.96266 7.66756 5.648 7.92534 5.38933C8.18578 5.12977 8.50045 5 8.86934 5C9.23822 5 9.55378 5.12977 9.816 5.38933C10.0764 5.648 10.2067 5.96266 10.2067 6.33333V17.3067C10.2067 17.6782 10.0773 17.9933 9.81867 18.252C9.56 18.5115 9.24445 18.6413 8.87467 18.6413ZM15.1067 18.6413C14.7378 18.6413 14.4227 18.5115 14.1613 18.252C13.9009 17.9924 13.7707 17.6778 13.7707 17.308V10.3333C13.7707 9.96266 13.9 9.64799 14.1587 9.38933C14.4173 9.12977 14.7316 8.99999 15.1013 8.99999C15.4711 8.99999 15.7862 9.12977 16.0467 9.38933C16.3071 9.64888 16.4373 9.96355 16.4373 10.3333V17.3067C16.4373 17.6782 16.308 17.9933 16.0493 18.252C15.7907 18.5115 15.4764 18.6413 15.1067 18.6413ZM21.3373 18.6413C20.9684 18.6413 20.6533 18.5115 20.392 18.252C20.1315 17.9933 20.0013 17.6787 20.0013 17.308V2.33333C20.0013 1.96267 20.1307 1.648 20.3893 1.38933C20.648 1.12978 20.9622 1 21.332 1C21.7018 1 22.0169 1.12978 22.2773 1.38933C22.5378 1.64889 22.6675 1.96355 22.6667 2.33333V17.3067C22.6667 17.6782 22.5373 17.9933 22.2787 18.252C22.02 18.5115 21.7071 18.6413 21.3373 18.6413Z" fill="#6A717B"/>
</svg>
