<svg width="24" height="24" viewBox="0 0 24 24" fill="none" xmlns="http://www.w3.org/2000/svg">
<path d="M11.25 22.5V16.869C9.871 16.767 8.6715 16.2675 7.6515 15.3705C6.6315 14.4735 5.9925 13.3445 5.7345 11.9835C4.1475 11.7965 2.795 11.146 1.677 10.032C0.559 8.918 0 7.574 0 6V5.4225C0 4.7565 0.2375 4.1865 0.7125 3.7125C1.1875 3.2385 1.7575 3.001 2.4225 3H5.481V2.4225C5.481 1.7565 5.718 1.1865 6.192 0.7125C6.667 0.2375 7.238 0 7.905 0H16.098C16.764 0 17.334 0.2375 17.808 0.7125C18.283 1.1865 18.5205 1.7565 18.5205 2.4225V3H21.579C22.245 3 22.815 3.2375 23.289 3.7125C23.763 4.1875 24 4.7575 24 5.4225V6C24 7.573 23.441 8.917 22.323 10.032C21.205 11.147 19.8525 11.797 18.2655 11.982C18.0075 13.344 17.3685 14.4735 16.3485 15.3705C15.3285 16.2675 14.129 16.7675 12.75 16.8705V22.5H16.674C16.886 22.5 17.064 22.572 17.208 22.716C17.352 22.86 17.424 23.0385 17.424 23.2515C17.424 23.4645 17.352 23.6425 17.208 23.7855C17.064 23.9285 16.886 24 16.674 24H7.3275C7.1145 24 6.936 23.928 6.792 23.784C6.648 23.64 6.5765 23.4615 6.5775 23.2485C6.5785 23.0355 6.65 22.8575 6.792 22.7145C6.934 22.5715 7.1125 22.5 7.3275 22.5H11.25ZM5.481 10.374V4.5H2.4225C2.1535 4.5 1.9325 4.5865 1.7595 4.7595C1.5865 4.9325 1.5 5.154 1.5 5.424V6C1.5 7.123 1.881 8.0995 2.643 8.9295C3.404 9.7595 4.35 10.241 5.481 10.374ZM12.006 15.4035C13.386 15.4035 14.557 14.921 15.519 13.956C16.481 12.992 16.962 11.8205 16.962 10.4415V2.424C16.962 2.154 16.875 1.9325 16.701 1.7595C16.529 1.5865 16.308 1.5 16.038 1.5H7.962C7.692 1.5 7.471 1.5865 7.299 1.7595C7.125 1.9325 7.038 2.154 7.038 2.424V10.443C7.038 11.821 7.521 12.9925 8.487 13.9575C9.454 14.9215 10.6275 15.4035 12.0075 15.4035M18.519 10.374C19.65 10.241 20.5965 9.7595 21.3585 8.9295C22.1195 8.0995 22.5 7.123 22.5 6V5.4225C22.5 5.1535 22.4135 4.9325 22.2405 4.7595C22.0675 4.5865 21.8465 4.5 21.5775 4.5H18.519V10.374Z" fill="#6A717B"/>
</svg>
