<svg width="25" height="24" viewBox="0 0 25 24" fill="none" xmlns="http://www.w3.org/2000/svg">
<path d="M21.5 0.75H15.7505C15.154 0.750794 14.5822 0.988102 14.1604 1.40989C13.7386 1.83167 13.5013 2.40351 13.5005 3V8.7495C13.5013 9.34599 13.7386 9.91783 14.1604 10.3396C14.5822 10.7614 15.154 10.9987 15.7505 10.9995H21.5C22.0965 10.9987 22.6683 10.7614 23.0901 10.3396C23.5119 9.91783 23.7492 9.34599 23.75 8.7495V3C23.7492 2.40351 23.5119 1.83167 23.0901 1.40989C22.6683 0.988102 22.0965 0.750794 21.5 0.75ZM22.25 8.7495C22.25 8.94841 22.171 9.13918 22.0303 9.27983C21.8897 9.42048 21.6989 9.4995 21.5 9.4995H15.7505C15.5516 9.4995 15.3608 9.42048 15.2202 9.27983C15.0795 9.13918 15.0005 8.94841 15.0005 8.7495V3C15.0005 2.80109 15.0795 2.61032 15.2202 2.46967C15.3608 2.32902 15.5516 2.25 15.7505 2.25H21.5C21.6989 2.25 21.8897 2.32902 22.0303 2.46967C22.171 2.61032 22.25 2.80109 22.25 3V8.7495ZM3.5 23.25H9.2495C9.84599 23.2492 10.4178 23.0119 10.8396 22.5901C11.2614 22.1683 11.4987 21.5965 11.4995 21V15.249C11.4987 14.6525 11.2614 14.0807 10.8396 13.6589C10.4178 13.2371 9.84599 12.9998 9.2495 12.999H3.5C2.90351 12.9998 2.33167 13.2371 1.90989 13.6589C1.4881 14.0807 1.25079 14.6525 1.25 15.249V21C1.25079 21.5965 1.4881 22.1683 1.90989 22.5901C2.33167 23.0119 2.90351 23.2492 3.5 23.25ZM2.75 15.2505C2.75 15.0516 2.82902 14.8608 2.96967 14.7202C3.11032 14.5795 3.30109 14.5005 3.5 14.5005H9.2495C9.44841 14.5005 9.63918 14.5795 9.77983 14.7202C9.92048 14.8608 9.9995 15.0516 9.9995 15.2505V21C9.9995 21.1989 9.92048 21.3897 9.77983 21.5303C9.63918 21.671 9.44841 21.75 9.2495 21.75H3.5C3.30109 21.75 3.11032 21.671 2.96967 21.5303C2.82902 21.3897 2.75 21.1989 2.75 21V15.2505ZM3.5 10.9995H9.2495C9.84599 10.9987 10.4178 10.7614 10.8396 10.3396C11.2614 9.91783 11.4987 9.34599 11.4995 8.7495V3C11.4987 2.40351 11.2614 1.83167 10.8396 1.40989C10.4178 0.988102 9.84599 0.750794 9.2495 0.75H3.5C2.90351 0.750794 2.33167 0.988102 1.90989 1.40989C1.4881 1.83167 1.25079 2.40351 1.25 3V8.7495C1.25079 9.34599 1.4881 9.91783 1.90989 10.3396C2.33167 10.7614 2.90351 10.9987 3.5 10.9995ZM2.75 3C2.75 2.80109 2.82902 2.61032 2.96967 2.46967C3.11032 2.32902 3.30109 2.25 3.5 2.25H9.2495C9.44841 2.25 9.63918 2.32902 9.77983 2.46967C9.92048 2.61032 9.9995 2.80109 9.9995 3V8.7495C9.9995 8.94841 9.92048 9.13918 9.77983 9.27983C9.63918 9.42048 9.44841 9.4995 9.2495 9.4995H3.5C3.30109 9.4995 3.11032 9.42048 2.96967 9.27983C2.82902 9.13918 2.75 8.94841 2.75 8.7495V3ZM18.6245 12.999C17.6108 12.999 16.6198 13.2996 15.7769 13.8628C14.934 14.426 14.2771 15.2265 13.8892 16.1631C13.5012 17.0996 13.3997 18.1302 13.5975 19.1244C13.7953 20.1187 14.2834 21.032 15.0002 21.7488C15.717 22.4656 16.6303 22.9537 17.6246 23.1515C18.6188 23.3493 19.6494 23.2478 20.5859 22.8598C21.5225 22.4719 22.323 21.815 22.8862 20.9721C23.4494 20.1292 23.75 19.1382 23.75 18.1245C23.7488 16.7655 23.2084 15.4625 22.2475 14.5015C21.2865 13.5406 19.9835 13.0002 18.6245 12.999ZM18.6245 21.75C17.9074 21.75 17.2064 21.5373 16.6101 21.1389C16.0139 20.7404 15.5492 20.1741 15.2748 19.5116C15.0005 18.849 14.9288 18.12 15.0688 17.4167C15.2088 16.7133 15.5542 16.0673 16.0614 15.5604C16.5686 15.0534 17.2147 14.7082 17.9181 14.5685C18.6215 14.4288 19.3505 14.5008 20.013 14.7754C20.6754 15.05 21.2415 15.515 21.6397 16.1114C22.0379 16.7078 22.2503 17.4089 22.25 18.126C22.2484 19.0869 21.8659 20.008 21.1863 20.6873C20.5067 21.3667 19.5854 21.7488 18.6245 21.75Z" fill="#6A717B"/>
</svg>
