<svg width="24" height="24" viewBox="0 0 24 24" fill="none" xmlns="http://www.w3.org/2000/svg">
<path d="M4.96298 24C3.60098 24 2.43348 23.5135 1.46048 22.5405C0.487477 21.5675 0.000976562 20.4 0.000976562 19.038V4.9905C0.000976562 3.6105 0.482977 2.4335 1.44698 1.4595C2.40998 0.4865 3.58148 0 4.96148 0H19.009C20.389 0 21.566 0.4865 22.54 1.4595C23.513 2.4325 23.9995 3.6095 23.9995 4.9905V19.038C23.9995 20.419 23.513 21.5915 22.54 22.5555C21.567 23.5185 20.39 24 19.009 24H4.96298ZM1.50098 11.3655V19.038C1.50098 19.998 1.83798 20.815 2.51198 21.489C3.18598 22.163 4.00298 22.5 4.96298 22.5H19.0105C19.9705 22.5 20.792 22.163 21.475 21.489C22.159 20.815 22.501 19.998 22.501 19.038V11.3655H18.376V14.568C18.376 15.238 18.14 15.8095 17.668 16.2825C17.196 16.7545 16.624 16.9905 15.952 16.9905H8.05148C7.37948 16.9905 6.80748 16.7545 6.33548 16.2825C5.86348 15.8105 5.62748 15.239 5.62748 14.568V11.3655H1.50098ZM7.12598 11.3655V14.568C7.12598 14.837 7.21248 15.058 7.38548 15.231C7.55848 15.404 7.77998 15.4905 8.04998 15.4905H15.9535C16.2225 15.4905 16.4435 15.404 16.6165 15.231C16.7895 15.058 16.876 14.837 16.876 14.568V11.3655H7.12598ZM1.50098 9.8655H22.501V4.9905C22.501 4.0115 22.164 3.185 21.49 2.511C20.816 1.837 19.9895 1.5 19.0105 1.5H4.96298C4.00298 1.5 3.18598 1.842 2.51198 2.526C1.83798 3.209 1.50098 4.0305 1.50098 4.9905V9.8655Z" fill="#6A717B"/>
</svg>
