<svg width="18" height="16" viewBox="0 0 18 16" fill="none" xmlns="http://www.w3.org/2000/svg">
<path d="M3.077 14L1.373 15.704C1.12033 15.9567 0.828333 16.0147 0.497 15.878C0.165667 15.7413 0 15.493 0 15.133V1.616C0 1.15533 0.154333 0.771 0.463 0.463C0.771667 0.155 1.156 0.000666667 1.616 0H16.385C16.845 0 17.2293 0.154333 17.538 0.463C17.8467 0.771667 18.0007 1.156 18 1.616V12.385C18 12.845 17.846 13.2293 17.538 13.538C17.23 13.8467 16.8457 14.0007 16.385 14H3.077ZM2.65 13H16.385C16.5383 13 16.6793 12.936 16.808 12.808C16.9367 12.68 17.0007 12.539 17 12.385V1.615C17 1.46167 16.936 1.32067 16.808 1.192C16.68 1.06333 16.539 0.999333 16.385 1H1.615C1.46167 1 1.32067 1.064 1.192 1.192C1.06333 1.32 0.999333 1.461 1 1.615V14.645L2.65 13ZM4 10.5H10C10.1427 10.5 10.2617 10.4523 10.357 10.357C10.4523 10.2617 10.5 10.1427 10.5 10C10.5 9.85733 10.4523 9.73833 10.357 9.643C10.2617 9.54767 10.1427 9.5 10 9.5H4C3.858 9.5 3.739 9.54767 3.643 9.643C3.547 9.73833 3.49933 9.85733 3.5 10C3.50067 10.1427 3.54833 10.2617 3.643 10.357C3.73767 10.4523 3.85667 10.5 4 10.5ZM4 7.5H14C14.1427 7.5 14.2617 7.45233 14.357 7.357C14.4523 7.26167 14.5 7.14267 14.5 7C14.5 6.85733 14.4523 6.73833 14.357 6.643C14.2617 6.54767 14.1427 6.5 14 6.5H4C3.858 6.5 3.739 6.54767 3.643 6.643C3.547 6.73833 3.49933 6.85733 3.5 7C3.50067 7.14267 3.54833 7.26167 3.643 7.357C3.73767 7.45233 3.85667 7.5 4 7.5ZM4 4.5H14C14.1427 4.5 14.2617 4.45233 14.357 4.357C14.4523 4.26167 14.5 4.14267 14.5 4C14.5 3.85733 14.4523 3.73833 14.357 3.643C14.2617 3.54767 14.1427 3.5 14 3.5H4C3.858 3.5 3.739 3.54767 3.643 3.643C3.547 3.73833 3.49933 3.85733 3.5 4C3.50067 4.14267 3.54833 4.26167 3.643 4.357C3.73767 4.45233 3.85667 4.5 4 4.5Z" fill="white"/>
</svg>
